<svg xmlns="http://www.w3.org/2000/svg" width="363.037" height="343" viewBox="0 0 363.037 343">
  <g id="패스_46" data-name="패스 46" transform="translate(0.037)" fill="#fff">
    <path d="M 362.5 342.3394165039062 C 359.9236145019531 341.6082458496094 349.6683349609375 338.658935546875 334.6776428222656 333.8502197265625 C 318.6722717285156 328.7160949707031 293.8423156738281 320.3521728515625 266.4451293945312 309.6627197265625 C 235.65673828125 297.6500854492188 207.9681396484375 285.2093505859375 184.1484527587891 272.6860046386719 C 170.0102844238281 265.2527770996094 157.0964202880859 257.707763671875 145.7656860351562 250.2606353759766 C 133.3087310791016 242.0733184814453 122.4592361450195 233.8026885986328 113.5186386108398 225.6785430908203 C 103.2571868896484 216.3542327880859 93.30941772460938 205.5376434326172 83.95164489746094 193.5292205810547 C 75.44187164306641 182.6090393066406 67.22868347167969 170.4584045410156 59.54018783569336 157.4148712158203 C 46.58745956420898 135.4404602050781 34.86577606201172 110.5592269897461 24.7008228302002 83.46222686767578 C 20.7069149017334 72.81558990478516 16.94677734375 61.79727172851562 13.52486896514893 50.71336364746094 C 10.78736877441406 41.84622573852539 8.259004592895508 32.91763687133789 6.010004997253418 24.17559051513672 C 2.7276771068573 11.41672515869141 1.002108693122864 2.765584230422974 0.566185474395752 0.5 L 362.5 0.5 L 362.5 342.3394165039062 Z" stroke="none"/>
    <path d="M 1.172760009765625 1 C 1.750640869140625 3.942901611328125 3.4530029296875 12.2293701171875 6.494232177734375 24.05105590820312 C 8.741241455078125 32.785400390625 11.26742553710938 41.70626831054688 14.00259399414062 50.56585693359375 C 17.42160034179688 61.64035034179688 21.17849731445312 72.64923095703125 25.1689453125 83.28659057617188 C 35.32379150390625 110.3565521240234 47.03286743164062 135.2114562988281 59.97091674804688 157.1609497070312 C 67.64849853515625 170.1860046386719 75.84951782226562 182.3186340332031 84.34603881835938 193.2219085693359 C 93.68630981445312 205.2078247070312 103.614501953125 216.0033264160156 113.8548736572266 225.3085021972656 C 122.7757720947266 233.4147338867188 133.6038208007812 241.6688232421875 146.0382385253906 249.8414611816406 C 157.354736328125 257.2793579101562 170.2536010742188 264.8156433105469 184.3765106201172 272.2409973144531 C 208.1783752441406 284.7552795410156 235.8482666015625 297.1878051757812 266.61767578125 309.1933288574219 C 294.0025939941406 319.8783264160156 318.8223266601562 328.239013671875 334.8212280273438 333.3712158203125 C 348.7836608886719 337.8501586914062 358.6363525390625 340.7153930664062 362 341.6770324707031 L 362 1 L 1.172760009765625 1 M -0.037353515625 0 L 363 0 L 363 343 C 363 343 188.3328247070312 294.3360900878906 113.182373046875 226.048583984375 C 26.94277954101562 147.6847229003906 -0.037353515625 0 -0.037353515625 0 Z" stroke="none" fill="#707070"/>
  </g>
</svg>
