<svg xmlns="http://www.w3.org/2000/svg" width="993.722" height="814.125" viewBox="0 0 993.722 814.125">
  <g id="undraw_my_universe_re_txot" transform="translate(-0.001 -0.01)">
    <path id="패스_20" data-name="패스 20" d="M351.042,798.582c62.718-32.513,192.369-87.055,356.023-87.055s293.3,54.543,356.023,87.055c61.058,31.652,110.164,68.972,133.3,99.422,8.432-11.476-3.944-215.648-38.192-296.621A656.236,656.236,0,0,0,553.021,200.25,347.38,347.38,0,0,0,305.767,302.667q-2.064,2.064-4.089,4.156C229.2,381.7,195.354,485.863,207.711,589.336c8.8,73.668,30.478,227.754,61.112,260.425a583.232,583.232,0,0,1,82.219-51.179Z" transform="translate(-205.213 -104.278)" fill="#f2f2f2"/>
    <ellipse id="타원_3" data-name="타원 3" cx="104.199" cy="21.738" rx="104.199" ry="21.738" transform="translate(404.941 614.303)" fill="#f2f2f2"/>
    <path id="패스_21" data-name="패스 21" d="M725.342,254.093C629.825,254.084,555,236.768,555.006,214.67c0-13.248,26.514-25.066,72.741-32.423a1.271,1.271,0,0,1,.4,2.511c-43.545,6.931-70.6,18.392-70.6,29.913,0,19.983,76.839,36.872,167.794,36.88s167.8-16.867,167.8-36.85c0-11.569-27.221-23.063-71.044-30a1.271,1.271,0,1,1,.4-2.511c46.514,7.36,73.19,19.209,73.189,32.509C895.685,236.8,820.86,254.1,725.342,254.093Z" transform="translate(-110.351 -109.179)" fill="#3f3d56"/>
    <path id="패스_22" data-name="패스 22" d="M622.524,244.67a97.86,97.86,0,0,0,169.26-.411,1540.631,1540.631,0,0,1-169.259.411Z" transform="translate(-92.04 -92.342)" fill="#fff"/>
    <path id="패스_23" data-name="패스 23" d="M804.01,249.49a97.878,97.878,0,1,0-187.955,1A727.415,727.415,0,0,0,804.01,249.49Z" transform="translate(-94.894 -124.75)" fill="#fff"/>
    <circle id="타원_4" data-name="타원 4" cx="11.441" cy="11.441" r="11.441" transform="translate(626.444 31.777)" fill="#fff"/>
    <circle id="타원_5" data-name="타원 5" cx="19.068" cy="19.068" r="19.068" transform="translate(559.064 71.181)" fill="#fff"/>
    <circle id="타원_6" data-name="타원 6" cx="11.441" cy="11.441" r="11.441" transform="translate(603.563 169.066)" fill="#fff"/>
    <ellipse id="타원_7" data-name="타원 7" cx="70.684" cy="11.718" rx="70.684" ry="11.718" transform="translate(441.404 624.137)" fill="#e6e6e6"/>
    <ellipse id="타원_8" data-name="타원 8" cx="118.922" cy="24.809" rx="118.922" ry="24.809" transform="translate(157.588 721.829)" fill="#f2f2f2"/>
    <ellipse id="타원_9" data-name="타원 9" cx="177.32" cy="36.992" rx="177.32" ry="36.992" transform="translate(583.516 740.151)" fill="#f2f2f2"/>
    <ellipse id="타원_10" data-name="타원 10" cx="91.159" cy="15.112" rx="91.159" ry="15.112" transform="translate(184.99 730.729)" fill="#e6e6e6"/>
    <ellipse id="타원_11" data-name="타원 11" cx="155.852" cy="25.836" rx="155.852" ry="25.836" transform="translate(605.023 748.956)" fill="#e6e6e6"/>
    <circle id="타원_12" data-name="타원 12" cx="8.898" cy="8.898" r="8.898" transform="translate(64.56 396.611)" fill="#fff"/>
    <circle id="타원_13" data-name="타원 13" cx="8.898" cy="8.898" r="8.898" transform="translate(687.446 526.273)" fill="#fff"/>
    <path id="패스_24" data-name="패스 24" d="M513.933,335.119c0,22.466,20.773,19.068,46.4,19.068s46.4,3.4,46.4-19.068-10.147-62.289-46.4-62.289C522.831,272.83,513.933,312.653,513.933,335.119Z" transform="translate(-121.49 -84.594)" fill="#2f2e41"/>
    <path id="패스_25" data-name="패스 25" d="M469.542,499.606a13.656,13.656,0,0,1,7.949-19.373l53.157-112.449,24.315,17.051-59.9,105.172a13.73,13.73,0,0,1-25.523,9.6Z" transform="translate(-133.954 -58.843)" fill="#ffb8b8"/>
    <path id="패스_26" data-name="패스 26" d="M505.094,388.292a6.116,6.116,0,0,1,.7-5.05l16.527-25.91a17.005,17.005,0,1,1,31.088,13.792l-8.325,29.687a6.123,6.123,0,0,1-8.4,3.936L508.46,392.123A6.117,6.117,0,0,1,505.094,388.292Z" transform="translate(-123.957 -64.42)" fill="#fff"/>
    <path id="패스_27" data-name="패스 27" d="M424.836,529.729l-14.644,5.333-27.535-53.947,21.613-7.87Z" transform="translate(103.775 128.34)" fill="#ffb8b8"/>
    <path id="패스_28" data-name="패스 28" d="M18.924,0H48.98V18.924H0A18.924,18.924,0,0,1,18.924,0Z" transform="matrix(0.94, -0.342, 0.342, 0.94, 484.199, 669.495)" fill="#2f2e41"/>
    <path id="패스_29" data-name="패스 29" d="M601.675,647.3l-55.789-97.63a6.13,6.13,0,0,1,.066-6.188l25.122-41.87a6.123,6.123,0,0,1,11.01,1.07l47.5,131.528a6.1,6.1,0,0,1-3.138,7.614l-16.83,7.972a6.069,6.069,0,0,1-2.6.583,6.153,6.153,0,0,1-5.339-3.079Z" transform="translate(-113.043 -23.355)" fill="#2f2e41"/>
    <circle id="타원_14" data-name="타원 14" cx="31.222" cy="31.222" r="31.222" transform="translate(405.64 205.93)" fill="#ffb8b8"/>
    <path id="패스_30" data-name="패스 30" d="M516.178,443.957c-24.588-54.52.2-84.991,12-95.56a18.5,18.5,0,0,1,12.369-4.731h43.983A18.529,18.529,0,0,1,601.1,370.482l-29.4,58.8-55.282,15.2Z" transform="translate(-123.726 -65.383)" fill="#fff"/>
    <path id="패스_31" data-name="패스 31" d="M341.6,542.1H326.02l-7.414-60.112h23Z" transform="translate(86.405 130.71)" fill="#ffb8b8"/>
    <path id="패스_32" data-name="패스 32" d="M319.718,525.772h30.056V544.7h-48.98A18.924,18.924,0,0,1,319.718,525.772Z" transform="translate(81.574 142.585)" fill="#2f2e41"/>
    <path id="패스_33" data-name="패스 33" d="M543.267,698.412l-24.952-2.878a6.124,6.124,0,0,1-5.368-6.89l22.269-167.671a4.771,4.771,0,0,0-.093-1.75l-22.383-92.346a6.052,6.052,0,0,1,.958-4.991c3.471-4.785,15.363-15.936,50.739-16.148h.038a6.145,6.145,0,0,1,5.589,3.592l4.719,10.381a4.782,4.782,0,0,0,1.593,1.923c6.5,4.6,37.96,30.4,19.485,87.062-18.158,55.688-41.424,163.8-45.9,184.907a6.091,6.091,0,0,1-5.972,4.849A6.249,6.249,0,0,1,543.267,698.412Z" transform="translate(-121.862 -48.55)" fill="#2f2e41"/>
    <path id="패스_34" data-name="패스 34" d="M648.188,320.547a13.382,13.382,0,0,0,.346,2.078l-42.391,46.663-14.972-3.227-7.823,21.958,25.949,8.288a10.17,10.17,0,0,0,11.528-4.006l40.07-59.486a13.344,13.344,0,1,0-12.709-12.268Z" transform="translate(-102.664 -75.56)" fill="#ffb8b8"/>
    <path id="패스_35" data-name="패스 35" d="M611.732,360.406,601.9,387.574a5.72,5.72,0,0,1-8.092,3.09L568.454,377a15.887,15.887,0,1,1,10.9-29.847l28.14,5.7a5.72,5.72,0,0,1,4.242,7.552Z" transform="translate(-109.536 -64.699)" fill="#fff"/>
    <path id="패스_36" data-name="패스 36" d="M594.391,316.881h-12.35l-5.448-15.254L575.5,316.881h-5.9l-3.178-8.9-.636,8.9H521.932a33.051,33.051,0,0,1,33.051-33.051h6.356a33.051,33.051,0,0,1,33.052,33.052Z" transform="translate(-119.32 -81.611)" fill="#2f2e41"/>
    <path id="패스_37" data-name="패스 37" d="M325.06,568.92H320.61V564.47a5.72,5.72,0,1,0-11.441,0v4.449H304.72a5.72,5.72,0,0,0,0,11.441h4.449v4.449a5.72,5.72,0,1,0,11.441,0V580.36h4.449a5.72,5.72,0,0,0,0-11.441Z" transform="translate(-179.779 -7.054)" fill="#fff"/>
    <path id="패스_38" data-name="패스 38" d="M837.551,482.038h-2.314v-2.314a2.975,2.975,0,0,0-5.949,0v2.314h-2.314a2.975,2.975,0,1,0,0,5.949h2.314V490.3a2.975,2.975,0,1,0,5.949,0v-2.314h2.314a2.975,2.975,0,0,0,0-5.949Z" transform="translate(-37.401 -29.292)" fill="#ff6584"/>
    <path id="패스_39" data-name="패스 39" d="M306.551,361.038h-2.314v-2.314a2.975,2.975,0,0,0-5.949,0v2.314h-2.314a2.975,2.975,0,0,0,0,5.949h2.314V369.3a2.975,2.975,0,0,0,5.949,0v-2.314h2.314a2.975,2.975,0,0,0,0-5.949Z" transform="translate(-181.406 -62.106)" fill="#fff"/>
    <path id="패스_40" data-name="패스 40" d="M441.551,361.038h-2.314v-2.314a2.975,2.975,0,0,0-5.949,0v2.314h-2.314a2.975,2.975,0,0,0,0,5.949h2.314V369.3a2.975,2.975,0,0,0,5.949,0v-2.314h2.314a2.975,2.975,0,0,0,0-5.949Z" transform="translate(-144.795 -62.106)" fill="#fff"/>
    <path id="패스_41" data-name="패스 41" d="M906.551,601.038h-2.313v-2.314a2.975,2.975,0,1,0-5.949,0v2.314h-2.314a2.975,2.975,0,0,0,0,5.949h2.314V609.3a2.975,2.975,0,1,0,5.949,0v-2.314h2.313a2.975,2.975,0,1,0,0-5.949Z" transform="translate(-18.688 2.981)" fill="#fff"/>
    <path id="패스_42" data-name="패스 42" d="M696.551,406.038h-2.314v-2.314a2.975,2.975,0,0,0-5.949,0v2.314h-2.314a2.975,2.975,0,1,0,0,5.949h2.314V414.3a2.975,2.975,0,0,0,5.949,0v-2.314h2.314a2.975,2.975,0,0,0,0-5.949Z" transform="translate(-75.64 -49.903)" fill="#fff"/>
    <path id="패스_43" data-name="패스 43" d="M375.551,456.038h-2.314v-2.314a2.975,2.975,0,1,0-5.949,0v2.314h-2.314a2.975,2.975,0,1,0,0,5.949h2.314V464.3a2.975,2.975,0,0,0,5.949,0v-2.314h2.314a2.975,2.975,0,1,0,0-5.949Z" transform="translate(-162.693 -36.343)" fill="#fff"/>
    <path id="패스_44" data-name="패스 44" d="M381.551,290.038h-2.314v-2.314a2.975,2.975,0,1,0-5.949,0v2.314h-2.314a2.975,2.975,0,1,0,0,5.949h2.314V298.3a2.975,2.975,0,1,0,5.949,0v-2.314h2.314a2.975,2.975,0,0,0,0-5.949Z" transform="translate(-161.066 -81.361)" fill="#fff"/>
  </g>
</svg>
