

<svg xmlns="http://www.w3.org/2000/svg" width="24" height="24" viewBox="0 0 24 24" >
  <g id="그룹_3" data-name="그룹 3" transform="translate(-811 -768)">
    <path id="Icon_ionic-ios-arrow-round-forward" data-name="Icon ionic-ios-arrow-round-forward" d="M20.629,11.52a.987.987,0,0,0-.007,1.342l4.224,4.44H8.771a.949.949,0,0,0,0,1.9H24.839l-4.224,4.44a.994.994,0,0,0,.007,1.342.87.87,0,0,0,1.271-.007l5.724-6.052h0a1.07,1.07,0,0,0,.188-.3.944.944,0,0,0,.069-.365.975.975,0,0,0-.257-.663l-5.724-6.052A.856.856,0,0,0,20.629,11.52Z" transform="translate(805.125 761.748)" fill="#fff"/>
    <rect id="사각형_12" data-name="사각형 12" width="24" height="24" transform="translate(811 768)" fill="none"/>
  </g>
</svg>
