<svg xmlns="http://www.w3.org/2000/svg" xmlns:xlink="http://www.w3.org/1999/xlink" width="712.152" height="624.146" viewBox="0 0 712.152 624.146">
  <defs>
    <clipPath id="clip-path">
      <rect width="712.152" height="624.146" fill="none"/>
    </clipPath>
  </defs>
  
    <g id="undraw_login_re_4vu2" transform="translate(0 0)">
      <path id="패스_1" data-name="패스 1" d="M831.453,737.5a58.784,58.784,0,0,1-16.485-46.506c1.813-17.37,13.045-33.338,27.613-37.026s31.176,6.522,35.6,23.232c2.435-32.217,5.241-65.784,19.829-93.22,13.209-24.842,36.086-42.618,60.88-45.8s50.9,8.831,66.362,31.81,19.249,56.385,8.419,82.767c-7.978,19.434-22.677,33.9-38.077,45.664-49.764,37.7-109.449,53.034-168.074,43.174Z" transform="translate(-150.698 -120.364)" fill="#f2f2f2"/>
      <path id="패스_2" data-name="패스 2" d="M999.3,546.12a443.349,443.349,0,0,0-56.033,65.334,496.184,496.184,0,0,0-63.112,123.838,2.379,2.379,0,1,0,4.51,1.46C910.064,663.9,950.614,599.7,1002.6,550c2.335-2.232-.991-6.1-3.307-3.883Z" transform="translate(-149.26 -118.807)" fill="#fff"/>
      <path id="패스_3" data-name="패스 3" d="M451.233,747.383c15.635-15.513,25.132-40.019,22.642-63.877s-17.917-45.789-37.927-50.855-42.82,8.958-48.9,31.909c-3.345-44.25-7.2-90.354-27.235-128.037-18.142-34.121-49.564-58.536-83.619-62.9s-69.91,12.129-91.149,43.69-26.439,77.445-11.564,113.68c10.958,26.693,31.146,46.558,52.3,62.72,67.483,51.561,151.2,73.065,230.85,59.3" transform="translate(-165 -133.317)" fill="#f2f2f2"/>
      <path id="패스_4" data-name="패스 4" d="M217.688,484.525A608.95,608.95,0,0,1,294.65,574.26a674.485,674.485,0,0,1,60.694,105.473q14.487,31.452,25.99,64.618c1.561,4.491-4.65,6.446-6.194,2.005A688.482,688.482,0,0,0,325.052,635.08a639.747,639.747,0,0,0-67.176-97.442,594.274,594.274,0,0,0-44.73-47.78c-3.207-3.066,1.362-8.374,4.542-5.333Z" transform="translate(-163.964 -131.178)" fill="#fff"/>
      <path id="패스_5" data-name="패스 5" d="M797.535,812.758H424.5V363.339c0-95.617,66.249-173.408,147.681-173.408h77.674c81.432,0,147.681,77.79,147.681,173.408Z" transform="translate(-159.287 -189.931)" fill="#f2f2f2"/>
      <path id="패스_6" data-name="패스 6" d="M719.862,812.758H424.5V363.338c-.081-36.638,9.8-72.351,28.2-101.938.678-1.086,1.355-2.157,2.053-3.217a161.9,161.9,0,0,1,31.431-35.822c.674-.576,1.351-1.142,2.038-1.708A141.177,141.177,0,0,1,520.391,200.9c.675-.3,1.363-.6,2.051-.891a129.249,129.249,0,0,1,31.793-8.8c.672-.108,1.362-.192,2.052-.277a127.466,127.466,0,0,1,31.79,0c.688.084,1.378.169,2.059.278a129.227,129.227,0,0,1,31.785,8.8c.688.289,1.376.59,2.053.891a140.74,140.74,0,0,1,31.791,19.46c.686.554,1.374,1.12,2.05,1.686A158.368,158.368,0,0,1,676.6,240.725a168.136,168.136,0,0,1,13,17.462c.7,1.056,1.372,2.128,2.049,3.212,18.4,29.587,28.286,65.3,28.2,101.939Z" transform="translate(-159.287 -189.93)" fill="#ccc"/>
      <ellipse id="타원_1" data-name="타원 1" cx="16.352" cy="19.201" rx="16.352" ry="19.201" transform="translate(520.206 383.417)"/>
      <path id="패스_7" data-name="패스 7" d="M595,517.243h-12.53l-5.961-56.748H595Z" transform="translate(12.692 92.123)" fill="#ffb8b8"/>
      <path id="패스_8" data-name="패스 8" d="M573.91,504.28h24.164v17.865H558.7C558.7,512.278,565.507,504.28,573.91,504.28Z" transform="translate(12.3 100.882)" fill="#2f2e41"/>
      <path id="패스_9" data-name="패스 9" d="M656,517.243h-12.53l-5.961-56.748H656Z" transform="translate(14.034 92.123)" fill="#ffb8b8"/>
      <path id="패스_10" data-name="패스 10" d="M634.91,504.28h24.164v17.865H619.7C619.7,512.278,626.507,504.28,634.91,504.28Z" transform="translate(13.642 100.882)" fill="#2f2e41"/>
      <path id="패스_11" data-name="패스 11" d="M698.139,554.749a14.794,14.794,0,0,1-1.475-10.77,12.489,12.489,0,0,1,6.085-8.243L745.342,397.89,766.3,411.321,717.668,543.052c1.937,6.161-.357,13.05-5.34,16.035s-11.079,1.121-14.19-4.337Z" transform="translate(-153.305 -148.328)" fill="#ffb8b8"/>
      <path id="패스_12" data-name="패스 12" d="M814.684,577.737a13.033,13.033,0,0,1-5.348-8.92,14.552,14.552,0,0,1,2.391-10.541L798.533,412.458l23.851,1.28,5.483,143.431a14.656,14.656,0,0,1,1.188,17.16c-3.363,5.248-9.538,6.712-14.372,3.408Z" transform="translate(-151.053 -145.414)" fill="#ffb8b8"/>
      <ellipse id="타원_2" data-name="타원 2" cx="25.102" cy="29.474" rx="25.102" ry="29.474" transform="translate(600.48 165.082)" fill="#ffb8b8"/>
      <path id="패스_13" data-name="패스 13" d="M815.81,549.931H740.133l.091-.692c.136-1.034,13.487-103.731,3.64-137.329-2.046-6.838.629-14.387,6.2-17.5h0c14.075-7.783,41.093-17.366,63.9,5.891,6.8,7.053,10.385,17.453,9.668,28.076Z" transform="translate(-152.339 -150.772)"/>
      <path id="패스_14" data-name="패스 14" d="M755.088,459.043l-34.07-8.116,15.97-44.438c1.975-8.982,9.777-14.384,17.427-12.065s12.25,11.48,10.275,20.463Z" transform="translate(-152.759 -149.129)"/>
      <path id="패스_15" data-name="패스 15" d="M797.1,473.595l-2.048-55.132c-1.553-10.364,3.5-20.161,11.27-21.763s15.363,5.592,16.923,16.033l7.7,51.515Z" transform="translate(-151.136 -148.61)"/>
      <path id="패스_16" data-name="패스 16" d="M813.38,517.049c12.177,54.454,13.505,123.688,10.22,199.209l-16.352-2.4L777.609,569.851,761.257,716.258l-18.4-1.2c-5.5-79.239-10.847-147.264-2.044-192.008Z" transform="translate(-152.426 -124.49)" fill="#2f2e41"/>
      <path id="패스_17" data-name="패스 17" d="M794.294,382.01c-4.683,5.857-13.379,2.713-13.99-5.289a11.323,11.323,0,0,1,.01-1.867c.315-3.544,2.059-6.762,1.641-10.5a6.1,6.1,0,0,0-.859-2.579c-3.732-5.867-12.491,2.624-16.013-2.687-2.159-3.257.379-8.385-1.278-12.025-2.187-4.8-8.665-2.434-12.728-5.066-4.52-2.927-4.25-11.071-1.274-16.024a20.634,20.634,0,0,1,16.274-9.728c6.283-.464,12.523,1.53,18.388,4.214,6.665,3.05,13.274,7.265,17.375,14.146,4.988,8.368,5.468,19.618,2.973,29.4C803.3,369.956,798.119,377.227,794.294,382.01Z" transform="translate(-152.174 -164.676)" fill="#2f2e41"/>
      <path id="패스_19" data-name="패스 19" d="M637.005,661.047H504.143c-3.643.023-6.615-3.421-6.643-7.7V305.129c.028-4.278,3-7.722,6.643-7.7H637.005c3.643-.023,6.615,3.421,6.643,7.7V653.348C643.62,657.626,640.649,661.07,637.005,661.047Z" transform="translate(-157.68 -168.425)" fill="#fff"/>
      <rect id="사각형_1" data-name="사각형 1" width="146.148" height="2.4" transform="translate(339.82 241.679)" fill="#ccc"/>
      <rect id="사각형_2" data-name="사각형 2" width="146.148" height="2.4" transform="translate(340.331 378.617)" fill="#ccc"/>
      <rect id="사각형_3" data-name="사각형 3" width="2.044" height="364.816" transform="translate(385.811 129.006)" fill="#ccc"/>
      <rect id="사각형_4" data-name="사각형 4" width="2.044" height="364.816" transform="translate(436.911 129.006)" fill="#ccc"/>
    </g>
  
</svg>
